<svg height="496pt" viewBox="0 0 496 496" width="496pt" xmlns="http://www.w3.org/2000/svg"><path d="m248 112c-74.992188 0-136 61.007812-136 136v160h272v-160c0-74.992188-61.007812-136-136-136zm0 0" fill="#f0bc5e"/><path d="m272 400v-125.390625l42.960938 12.269531c2.597656.746094 5.285156 1.121094 7.984374 1.121094 16.023438 0 29.054688-13.03125 29.054688-29.054688v-21.890624c0-16.023438-13.03125-29.054688-29.054688-29.054688-2.699218 0-5.386718.375-7.976562 1.121094l-45.199219 12.910156c-3.800781-8.253906-12.105469-14.03125-21.769531-14.03125s-17.96875 5.777344-21.769531 14.03125l-45.191407-12.902344c-2.597656-.753906-5.285156-1.128906-7.984374-1.128906-16.023438 0-29.054688 13.03125-29.054688 29.054688v21.890624c0 16.023438 13.03125 29.054688 29.054688 29.054688 2.699218 0 5.386718-.375 7.976562-1.121094l42.96875-12.269531v125.390625h-107.3125l-36.6875 36.6875v59.3125h336v-59.3125l-36.6875-36.6875zm47.367188-175.503906c1.160156-.328125 2.367187-.496094 3.578124-.496094 7.199219 0 13.054688 5.855469 13.054688 13.054688v21.890624c0 8.40625-8.511719 14.871094-16.640625 12.542969l-47.359375-13.527343v-19.929688zm-142.734376 47.007812c-1.160156.328125-2.367187.496094-3.578124.496094-7.199219 0-13.054688-5.855469-13.054688-13.054688v-21.890624c0-8.40625 8.496094-14.886719 16.640625-12.542969l47.359375 13.527343v19.929688zm63.367188-39.503906c0-4.414062 3.585938-8 8-8s8 3.585938 8 8v168h-16zm-116.6875 184h249.375l16 16h-281.375zm-27.3125 64v-32h304v32zm0 0"/><path d="m400 152v16c44.113281 0 80 35.886719 80 80s-35.886719 80-80 80v16c52.9375 0 96-43.0625 96-96s-43.0625-96-96-96zm0 0"/><path d="m464 248c0-35.289062-28.710938-64-64-64v16c26.472656 0 48 21.527344 48 48s-21.527344 48-48 48v16c35.289062 0 64-28.710938 64-64zm0 0"/><path d="m248 16c44.113281 0 80 35.886719 80 80h16c0-52.9375-43.0625-96-96-96s-96 43.0625-96 96h16c0-44.113281 35.886719-80 80-80zm0 0"/><path d="m248 32c-35.289062 0-64 28.710938-64 64h16c0-26.472656 21.527344-48 48-48s48 21.527344 48 48h16c0-35.289062-28.710938-64-64-64zm0 0"/><path d="m96 328c-44.113281 0-80-35.886719-80-80s35.886719-80 80-80v-16c-52.9375 0-96 43.0625-96 96s43.0625 96 96 96zm0 0"/><path d="m96 200v-16c-35.289062 0-64 28.710938-64 64s28.710938 64 64 64v-16c-26.472656 0-48-21.527344-48-48s21.527344-48 48-48zm0 0"/></svg>