<svg id="Layer_3" enable-background="new 0 0 64 64" height="512" viewBox="0 0 64 64" width="512" xmlns="http://www.w3.org/2000/svg"><path d="m51 34.479v25.439l-16.907-13.525c.166-.14.335-.276.493-.427l9.759-9.294-1.379-1.449-9.759 9.295c-1.681 1.6-3.885 2.482-6.207 2.482s-4.526-.882-6.207-2.483l-16.293-15.517h26.096v-2h-29.596v36h52v-28.521zm-18.62 13.106 16.768 13.415h-44.296l16.769-13.416c1.628.917 3.468 1.416 5.379 1.416s3.751-.499 5.38-1.415zm-12.472-1.193-16.908 13.527v-29.586l16.414 15.631c.159.152.328.288.494.428z"/><path d="m47 53h2v2h-2z"/><path d="m47 41h2v10h-2z"/><path d="m45 37c-9.925 0-18-8.075-18-18s8.075-18 18-18 18 8.075 18 18-8.075 18-18 18z" fill="#f0bc5e"/><path d="m45.005 6.997h-.329c-.001 0-.001 0-.002 0-3.117 0-6.049 1.214-8.254 3.418-2.206 2.205-3.421 5.138-3.42 8.256v.33c0 3.205 1.249 6.219 3.516 8.485 2.266 2.266 5.279 3.514 8.483 3.514h.002 1.999v-2h-1.999c-.001 0-.001 0-.002 0-2.67 0-5.181-1.04-7.069-2.928-1.89-1.89-2.93-4.4-2.93-7.071v-.33c0-2.585 1.006-5.014 2.834-6.841 1.827-1.827 4.256-2.833 6.84-2.833h.002.329c5.511.002 9.995 4.487 9.995 9.998v3.505c0 1.379-1.121 2.5-2.5 2.5s-2.5-1.121-2.5-2.5v-2.5-2c0-2.757-2.243-5-5-5s-5 2.243-5 5v2c0 2.757 2.243 5 5 5 1.229 0 2.342-.463 3.214-1.202.561 1.846 2.259 3.202 4.286 3.202 2.481 0 4.5-2.019 4.5-4.5v-3.505c0-6.613-5.381-11.996-11.995-11.998zm-.005 16.003c-1.654 0-3-1.346-3-3v-2c0-1.654 1.346-3 3-3s3 1.346 3 3v2c0 1.654-1.346 3-3 3z"/><path d="m11 31h2v2h-2z"/><path d="m15 31h2v2h-2z"/><path d="m19 31h2v2h-2z"/></svg>