<?xml version="1.0" encoding="iso-8859-1"?>
<!-- Generator: Adobe Illustrator 19.0.0, SVG Export Plug-In . SVG Version: 6.00 Build 0)  -->
<svg version="1.1" id="Capa_1" xmlns="http://www.w3.org/2000/svg" xmlns:xlink="http://www.w3.org/1999/xlink" x="0px" y="0px"
	 viewBox="0 0 496 496" style="enable-background:new 0 0 496 496;" xml:space="preserve">
<g>
	<path style="fill:#F0BC5E;" d="M248,0c-66.168,0-120,53.832-120,120v64h8c0-17.672,14.328-32,32-32v-40
		c20.488,20.488,48.28,32,77.256,32H248l-8-32l14.72,9.816C276.416,136.28,301.92,144,328,144v8c17.672,0,32,14.328,32,32h8v-64
		C368,53.832,314.168,0,248,0z"/>
	<polygon style="fill:#F0BC5E;" points="280,360 248,336 216,360 232,392 216,488 280,488 264,392 	"/>
</g>
<circle cx="208" cy="176" r="8"/>
<circle cx="288" cy="176" r="8"/>
<path d="M248,248c17.648,0,32-14.352,32-32h-16c0,8.824-7.176,16-16,16s-16-7.176-16-16h-16C216,233.648,230.352,248,248,248z"/>
<path d="M382.432,310.776L304,289.848v-22.024c13.688-11.32,23.824-26.728,28.712-44.304C352.528,221.16,368,204.44,368,184
	c0-19.312-13.768-35.472-32-39.192V104h-16v31.704c-21.728-1.392-42.616-8.4-60.84-20.552l-31.936-21.288l10.472,41.856
	c-23.144-1.704-44.688-11.256-61.688-27.24V104h-16v40.808c-18.232,3.72-32,19.872-32,39.192c0,20.44,15.472,37.16,35.288,39.52
	c4.888,17.576,15.024,32.984,28.712,44.304v22.024l-78.432,20.92C89.096,317.296,72,339.536,72,364.872V496h352V364.872
	C424,339.536,406.904,317.296,382.432,310.776z M408,364.872V424h-47.68c1.472-33.272,8.648-65.672,21.32-96.576
	C397.288,333.136,408,347.984,408,364.872z M129.808,323L176,310.68v79.76l71.328-44.584l0.672-0.432l0.672,0.432L320,390.44v-79.76
	L366.192,323C351.52,359.336,344,397.624,344,436.928V480H152v-43.072C152,397.624,144.48,359.336,129.808,323z M297.944,304.8
	l6.056,1.616v55.144l-42.392-26.488L297.944,304.8z M352,184c0,10.536-6.872,19.416-16.336,22.632
	c0.168-2.2,0.336-4.392,0.336-6.632v-38.528C345.288,164.784,352,173.584,352,184z M144,184c0-10.416,6.712-19.216,16-22.528V200
	c0,2.24,0.168,4.432,0.336,6.632C150.872,203.416,144,194.536,144,184z M176,200v-70.784C195.984,143.936,219.976,152,245.256,152
	h12.992l-5.488-21.904c20.272,12.904,43.32,20.264,67.232,21.624V200c0,39.704-32.296,72-72,72S176,239.704,176,200z M248,288
	c14.408,0,27.984-3.552,40-9.712v13.96l-40,33.336l-40-33.336v-13.96C220.016,284.448,233.592,288,248,288z M198.056,304.8
	l36.336,30.272L192,361.56v-55.144L198.056,304.8z M114.352,327.424c12.672,30.904,19.856,63.304,21.32,96.576H88v-59.128
	C88,347.984,98.712,333.136,114.352,327.424z M88,440h48v40H88V440z M360,480v-40h48v40H360z"/>
<g>
</g>
<g>
</g>
<g>
</g>
<g>
</g>
<g>
</g>
<g>
</g>
<g>
</g>
<g>
</g>
<g>
</g>
<g>
</g>
<g>
</g>
<g>
</g>
<g>
</g>
<g>
</g>
<g>
</g>
</svg>
