<svg height="496pt" viewBox="-80 0 496 496" width="496pt" xmlns="http://www.w3.org/2000/svg"><path d="m256 232v50.726562c0 7.609376-2.710938 14.816407-6.886719 21.183594-5.960937 9.089844-9.113281 19.632813-9.113281 30.515625v53.101563c0 10.542968 3.863281 20.464844 9.609375 29.3125 4.175781 6.433594 6.390625 13.886718 6.390625 21.585937v49.574219h56c8.839844 0 16-7.160156 16-16v-224c0-8.839844-7.160156-16-16-16zm0 0" fill="#f0bc5e"/><path d="m80 232v50.726562c0 7.609376 2.710938 14.816407 6.886719 21.183594 5.960937 9.089844 9.113281 19.632813 9.113281 30.515625v53.101563c0 10.542968-3.863281 20.464844-9.609375 29.3125-4.175781 6.433594-6.390625 13.886718-6.390625 21.585937v49.574219h-56c-8.839844 0-16-7.160156-16-16v-224c0-8.839844 7.160156-16 16-16zm0 0" fill="#f0bc5e"/><path d="m112 304h112v-48h-112zm48-16v-16h16v16zm48 0h-16v-16h16zm-80-16h16v16h-16zm0 0"/><path d="m112 368h112v-48h-112zm48-16v-16h16v16zm48 0h-16v-16h16zm-80-16h16v16h-16zm0 0"/><path d="m112 432h112v-48h-112zm48-16v-16h16v16zm48 0h-16v-16h16zm-80-16h16v16h-16zm0 0"/><path d="m312 224h-8v-88c0-74.992188-61.007812-136-136-136s-136 61.007812-136 136v88h-8c-13.230469 0-24 10.769531-24 24v224c0 13.230469 10.769531 24 24 24h128v-8c0-3.265625 6.230469-8 16-8s16 4.734375 16 8v8h128c13.230469 0 24-10.769531 24-24v-224c0-13.230469-10.769531-24-24-24zm-264-88c0-66.167969 53.832031-120 120-120s120 53.832031 120 120v88h-32v-88c0-48.519531-39.480469-88-88-88s-88 39.480469-88 88v88h-32zm192 88h-144v-88c0-39.695312 32.304688-72 72-72s72 32.304688 72 72zm80 248c0 4.40625-3.59375 8-8 8h-113.753906c-4.300782-9.40625-16.054688-16-30.246094-16s-25.945312 6.59375-30.246094 16h-113.753906c-4.40625 0-8-3.59375-8-8v-224c0-4.40625 3.59375-8 8-8h288c4.40625 0 8 3.59375 8 8zm0 0"/></svg>