<svg id="Layer_5" enable-background="new 0 0 64 64" height="512" viewBox="0 0 64 64" width="512" xmlns="http://www.w3.org/2000/svg"><g><g><g><path d="m57 19h-24c-1.105 0-2-.895-2-2v-6c0-1.105.895-2 2-2h24c1.105 0 2 .895 2 2v6c0 1.105-.895 2-2 2z" fill="#f0bc5e"/></g></g><g><g><path d="m56 51c-1.654 0-3-1.346-3-3s1.346-3 3-3 3 1.346 3 3-1.346 3-3 3z" fill="#f0bc5e"/></g></g><g><g><path d="m46 51c-1.654 0-3-1.346-3-3s1.346-3 3-3 3 1.346 3 3-1.346 3-3 3z" fill="#f0bc5e"/></g></g><g><g><path d="m36 51c-1.654 0-3-1.346-3-3s1.346-3 3-3 3 1.346 3 3-1.346 3-3 3z" fill="#f0bc5e"/></g></g><g><path d="m58 1h-44c-2.757 0-5 2.243-5 5v34h-3c-1.654 0-3 1.346-3 3v1.184c-1.161.414-2 1.514-2 2.816 0 .771.301 1.468.78 2-.479.532-.78 1.229-.78 2s.301 1.468.78 2c-.479.532-.78 1.229-.78 2 0 1.065.562 1.997 1.401 2.529-.248.437-.401.934-.401 1.471 0 1.654 1.346 3 3 3 .537 0 1.034-.153 1.471-.401.532.839 1.464 1.401 2.529 1.401.771 0 1.468-.301 2-.78.532.48 1.229.78 2 .78 1.302 0 2.402-.839 2.816-2h3.184c1.654 0 3-1.346 3-3v-3h36c2.757 0 5-2.243 5-5v-44c0-2.757-2.243-5-5-5zm-54 53c.552 0 1 .448 1 1s-.448 1-1 1-1-.448-1-1 .448-1 1-1zm-1-3c0-.552.448-1 1-1s1 .448 1 1-.448 1-1 1-1-.448-1-1zm1-5c.552 0 1 .448 1 1s-.448 1-1 1-1-.448-1-1 .448-1 1-1zm1 14c-.552 0-1-.448-1-1s.448-1 1-1 1 .448 1 1-.448 1-1 1zm4 1c-.552 0-1-.448-1-1s.448-1 1-1 1 .448 1 1-.448 1-1 1zm4 0c-.552 0-1-.448-1-1s.448-1 1-1 1 .448 1 1-.448 1-1 1zm7-3c0 .552-.448 1-1 1h-3.184c-.414-1.161-1.514-2-2.816-2-.771 0-1.468.301-2 .78-.532-.479-1.229-.78-2-.78-.537 0-1.034.153-1.471.401-.238-.375-.555-.692-.931-.931.249-.436.402-.933.402-1.47 0-.771-.301-1.468-.78-2 .479-.532.78-1.229.78-2s-.301-1.468-.78-2c.479-.532.78-1.229.78-2 0-1.302-.839-2.402-2-2.816v-1.184c0-.552.448-1 1-1h3v8c0 2.757 2.243 5 5 5h6zm41-8c0 1.654-1.346 3-3 3h-36v-2h2c2.757 0 5-2.243 5-5v-3.343c0-1.336-.521-2.592-1.465-3.536l-.535-.535v-21.172l.535-.535c.944-.944 1.465-2.2 1.465-3.536v-3.343c0-2.757-2.243-5-5-5h-6c-2.757 0-5 2.243-5 5v3.343c0 1.336.521 2.592 1.465 3.536l.535.535v21.172l-.535.535c-.944.944-1.465 2.2-1.465 3.536v3.343c0 2.757 2.243 5 5 5h2v2h-6c-1.654 0-3-1.346-3-3v-44c0-1.654 1.346-3 3-3h44c1.654 0 3 1.346 3 3zm-45.121-34.535c-.566-.567-.879-1.32-.879-2.122v-3.343c0-1.654 1.346-3 3-3h6c1.654 0 3 1.346 3 3v3.343c0 .802-.313 1.556-.879 2.122l-1.121 1.121v22.828l1.121 1.121c.567.567.879 1.32.879 2.122v3.343c0 1.654-1.346 3-3 3h-6c-1.654 0-3-1.346-3-3v-3.343c0-.802.313-1.556.879-2.122l1.121-1.121v-22.828z"/><path d="m57 21h-4c-1.103 0-2 .897-2 2v2c0 1.103.897 2 2 2h4c1.103 0 2-.897 2-2v-2c0-1.103-.897-2-2-2zm-4 4v-2h4l.002 2z"/><path d="m47 21h-4c-1.103 0-2 .897-2 2v2c0 1.103.897 2 2 2h4c1.103 0 2-.897 2-2v-2c0-1.103-.897-2-2-2zm-4 4v-2h4l.002 2z"/><path d="m37 21h-4c-1.103 0-2 .897-2 2v2c0 1.103.897 2 2 2h4c1.103 0 2-.897 2-2v-2c0-1.103-.897-2-2-2zm-4 4v-2h4l.002 2z"/><path d="m57 29h-4c-1.103 0-2 .897-2 2v2c0 1.103.897 2 2 2h4c1.103 0 2-.897 2-2v-2c0-1.103-.897-2-2-2zm-4 4v-2h4l.002 2z"/><path d="m47 29h-4c-1.103 0-2 .897-2 2v2c0 1.103.897 2 2 2h4c1.103 0 2-.897 2-2v-2c0-1.103-.897-2-2-2zm-4 4v-2h4l.002 2z"/><path d="m37 29h-4c-1.103 0-2 .897-2 2v2c0 1.103.897 2 2 2h4c1.103 0 2-.897 2-2v-2c0-1.103-.897-2-2-2zm-4 4v-2h4l.002 2z"/><path d="m57 37h-4c-1.103 0-2 .897-2 2v2c0 1.103.897 2 2 2h4c1.103 0 2-.897 2-2v-2c0-1.103-.897-2-2-2zm-4 4v-2h4l.002 2z"/><path d="m47 37h-4c-1.103 0-2 .897-2 2v2c0 1.103.897 2 2 2h4c1.103 0 2-.897 2-2v-2c0-1.103-.897-2-2-2zm-4 4v-2h4l.002 2z"/><path d="m37 37h-4c-1.103 0-2 .897-2 2v2c0 1.103.897 2 2 2h4c1.103 0 2-.897 2-2v-2c0-1.103-.897-2-2-2zm-4 4v-2h4l.002 2z"/><path d="m52 5h2v2h-2z"/><path d="m48 5h2v2h-2z"/><path d="m56 5h2v2h-2z"/><path d="m44 5h2v2h-2z"/></g></g></svg>