<?xml version="1.0" encoding="iso-8859-1"?>
<!-- Generator: Adobe Illustrator 19.0.0, SVG Export Plug-In . SVG Version: 6.00 Build 0)  -->
<svg version="1.1" id="Capa_1" xmlns="http://www.w3.org/2000/svg" xmlns:xlink="http://www.w3.org/1999/xlink" x="0px" y="0px"
	 viewBox="0 0 496 496" style="enable-background:new 0 0 496 496;" xml:space="preserve">
<path style="fill:#F0BC5E;" d="M433.736,256.184C395.032,247.584,368,213.888,368,174.24V120C368,53.832,314.168,0,248,0
	S128,53.832,128,120v54.24c0,39.648-27.032,73.344-65.736,81.944l-10.6,2.36l9.608,16.8c13.76,24.088,36.448,41.384,62.512,48.728
	L208,296v-24h5.184c-22.104-10.712-38.552-31.272-43.576-56H168c-17.672,0-32-14.328-32-32s14.328-32,32-32v-16h16
	c25.184,0,48.888-11.856,64-32c15.112,20.144,38.816,32,64,32h16v16c17.672,0,32,14.328,32,32s-14.328,32-32,32h-1.608
	c-5.024,24.728-21.472,45.288-43.576,56H288v24l84.216,28.072c26.064-7.344,48.752-24.64,62.512-48.728l9.608-16.8L433.736,256.184z
	"/>
<path d="M377.712,317.472L296,290.232v-16.576c17.68-11.56,30.912-29.304,36.712-50.136C352.528,221.16,368,204.44,368,184
	c0-19.312-13.768-35.472-32-39.192V120h-16v8h-8c-22.544,0-44.072-10.768-57.6-28.8l-6.4-8.536l-6.4,8.536
	C228.072,117.232,206.544,128,184,128h-8v-8h-16v24.808c-18.232,3.72-32,19.872-32,39.192c0,20.44,15.472,37.16,35.288,39.52
	c5.792,20.84,19.032,38.576,36.712,50.136v16.576l-81.712,27.232C95.384,325.104,80,346.456,80,370.6V496h72h16h248V370.6
	C416,346.456,400.616,325.104,377.712,317.472z M352,184c0,10.536-6.872,19.416-16.336,22.632c0.168-2.2,0.336-4.392,0.336-6.632
	v-38.528C345.288,164.784,352,173.584,352,184z M144,184c0-10.416,6.712-19.216,16-22.528V200c0,2.24,0.168,4.432,0.336,6.632
	C150.872,203.416,144,194.536,144,184z M176,200v-56h8c24.224,0,47.496-10.176,64-27.616C264.504,133.824,287.776,144,312,144h8v56
	c0,39.696-32.304,72-72,72S176,239.696,176,200z M248,288c11.296,0,22.064-2.216,32-6.112v12.56
	c-1.736,3.808-9.536,17.552-32,17.552c-22.28,0-30.176-13.624-32-17.568v-12.544C225.936,285.784,236.704,288,248,288z
	 M204.024,305.76C209.52,314.496,222.184,328,248,328s38.48-13.504,43.976-22.24l10.224,3.408l-12.928,45.248L248,375.056
	l-41.272-20.64L193.8,309.168L204.024,305.76z M96,480V370.6c0-17.248,10.992-32.496,27.352-37.952l14.368-4.792l13.424,53.688
	l-5.992,5.992C134.088,398.592,128,413.304,128,428.944c0,18.776,8.928,36.264,24,47.272V480H96z M162.952,464.352
	C151.08,456.44,144,443.2,144,428.944c0-11.368,4.424-22.056,12.464-30.096l12.392-12.392l-15.92-63.672l25.656-8.552l14.672,51.352
	L248,392.944l54.728-27.36l14.672-51.352l23.816,7.936l-14.072,56.28l12.392,12.392c8.04,8.048,12.464,18.736,12.464,30.104
	c0,14.264-7.08,27.504-18.952,35.408L328,459.72V480H168v-12.28L162.952,464.352z M400,480h-56v-11.784
	c15.072-11.008,24-28.496,24-47.272c0-15.64-6.088-30.344-17.152-41.408l-5.992-5.992l11.576-46.304l16.216,5.408
	C389.008,338.104,400,353.352,400,370.6V480z"/>
<circle cx="208" cy="168" r="8"/>
<circle cx="288" cy="168" r="8"/>
<path d="M280,216h-16c0,8.824-7.176,16-16,16s-16-7.176-16-16h-16c0,17.648,14.352,32,32,32S280,233.648,280,216z"/>
<path style="fill:#F0BC5E;" d="M248,360c-13.232,0-24-10.768-24-24s10.768-24,24-24s24,10.768,24,24S261.232,360,248,360z"/>
<g>
</g>
<g>
</g>
<g>
</g>
<g>
</g>
<g>
</g>
<g>
</g>
<g>
</g>
<g>
</g>
<g>
</g>
<g>
</g>
<g>
</g>
<g>
</g>
<g>
</g>
<g>
</g>
<g>
</g>
</svg>
